<mxfile host="app.diagrams.net" modified="2024-03-03T11:54:00.056Z" agent="Mozilla/5.0 (Windows NT 10.0; Win64; x64) AppleWebKit/537.36 (KHTML, like Gecko) Chrome/121.0.0.0 Safari/537.36" etag="RBrhRHAuCF2DAaIa-Jp6" version="24.0.1" type="github">
  <diagram name="Page-1" id="2YBvvXClWsGukQMizWep">
    <mxGraphModel dx="880" dy="468" grid="1" gridSize="10" guides="1" tooltips="1" connect="1" arrows="1" fold="1" page="1" pageScale="1" pageWidth="850" pageHeight="1100" math="0" shadow="0">
      <root>
        <mxCell id="0" />
        <mxCell id="1" parent="0" />
        <mxCell id="aM9ryv3xv72pqoxQDRHE-5" value=":E-learning system" style="shape=umlLifeline;perimeter=lifelinePerimeter;whiteSpace=wrap;html=1;container=0;dropTarget=0;collapsible=0;recursiveResize=0;outlineConnect=0;portConstraint=eastwest;newEdgeStyle={&quot;edgeStyle&quot;:&quot;elbowEdgeStyle&quot;,&quot;elbow&quot;:&quot;vertical&quot;,&quot;curved&quot;:0,&quot;rounded&quot;:0};" parent="1" vertex="1">
          <mxGeometry x="420" y="134" width="120" height="480" as="geometry" />
        </mxCell>
        <mxCell id="NdkVsmn_23SWiZGON9mY-3" value="" style="html=1;points=[[0,0,0,0,5],[0,1,0,0,-5],[1,0,0,0,5],[1,1,0,0,-5]];perimeter=orthogonalPerimeter;outlineConnect=0;targetShapes=umlLifeline;portConstraint=eastwest;newEdgeStyle={&quot;curved&quot;:0,&quot;rounded&quot;:0};" parent="aM9ryv3xv72pqoxQDRHE-5" vertex="1">
          <mxGeometry x="50" y="60" width="10" height="80" as="geometry" />
        </mxCell>
        <mxCell id="NdkVsmn_23SWiZGON9mY-7" value="" style="html=1;points=[[0,0,0,0,5],[0,1,0,0,-5],[1,0,0,0,5],[1,1,0,0,-5]];perimeter=orthogonalPerimeter;outlineConnect=0;targetShapes=umlLifeline;portConstraint=eastwest;newEdgeStyle={&quot;curved&quot;:0,&quot;rounded&quot;:0};" parent="aM9ryv3xv72pqoxQDRHE-5" vertex="1">
          <mxGeometry x="50" y="180" width="10" height="50" as="geometry" />
        </mxCell>
        <mxCell id="NdkVsmn_23SWiZGON9mY-12" value="" style="html=1;points=[[0,0,0,0,5],[0,1,0,0,-5],[1,0,0,0,5],[1,1,0,0,-5]];perimeter=orthogonalPerimeter;outlineConnect=0;targetShapes=umlLifeline;portConstraint=eastwest;newEdgeStyle={&quot;curved&quot;:0,&quot;rounded&quot;:0};" parent="aM9ryv3xv72pqoxQDRHE-5" vertex="1">
          <mxGeometry x="50" y="290" width="10" height="70" as="geometry" />
        </mxCell>
        <mxCell id="NdkVsmn_23SWiZGON9mY-20" value="" style="html=1;points=[[0,0,0,0,5],[0,1,0,0,-5],[1,0,0,0,5],[1,1,0,0,-5]];perimeter=orthogonalPerimeter;outlineConnect=0;targetShapes=umlLifeline;portConstraint=eastwest;newEdgeStyle={&quot;curved&quot;:0,&quot;rounded&quot;:0};" parent="aM9ryv3xv72pqoxQDRHE-5" vertex="1">
          <mxGeometry x="50" y="392" width="10" height="50" as="geometry" />
        </mxCell>
        <mxCell id="NdkVsmn_23SWiZGON9mY-10" value="Alt" style="shape=umlFrame;whiteSpace=wrap;html=1;pointerEvents=0;" parent="1" vertex="1">
          <mxGeometry x="130" y="394" width="430" height="220" as="geometry" />
        </mxCell>
        <mxCell id="NdkVsmn_23SWiZGON9mY-1" value="Content creator" style="shape=umlLifeline;perimeter=lifelinePerimeter;whiteSpace=wrap;html=1;container=1;dropTarget=0;collapsible=0;recursiveResize=0;outlineConnect=0;portConstraint=eastwest;newEdgeStyle={&quot;curved&quot;:0,&quot;rounded&quot;:0};participant=umlActor;" parent="1" vertex="1">
          <mxGeometry x="150" y="134" width="20" height="480" as="geometry" />
        </mxCell>
        <mxCell id="NdkVsmn_23SWiZGON9mY-2" value="Administator" style="shape=umlLifeline;perimeter=lifelinePerimeter;whiteSpace=wrap;html=1;container=1;dropTarget=0;collapsible=0;recursiveResize=0;outlineConnect=0;portConstraint=eastwest;newEdgeStyle={&quot;curved&quot;:0,&quot;rounded&quot;:0};participant=umlActor;" parent="1" vertex="1">
          <mxGeometry x="310" y="134" width="20" height="480" as="geometry" />
        </mxCell>
        <mxCell id="NdkVsmn_23SWiZGON9mY-5" value="success message" style="html=1;verticalAlign=bottom;endArrow=open;dashed=1;endSize=8;curved=0;rounded=0;exitX=0;exitY=1;exitDx=0;exitDy=-5;" parent="1" edge="1">
          <mxGeometry x="0.3527" y="-5" relative="1" as="geometry">
            <mxPoint x="159.5" y="234" as="targetPoint" />
            <mxPoint x="470" y="234" as="sourcePoint" />
            <mxPoint as="offset" />
          </mxGeometry>
        </mxCell>
        <mxCell id="NdkVsmn_23SWiZGON9mY-4" value="upload content" style="html=1;verticalAlign=bottom;endArrow=block;curved=0;rounded=0;entryX=0;entryY=0;entryDx=0;entryDy=5;" parent="1" source="NdkVsmn_23SWiZGON9mY-1" target="NdkVsmn_23SWiZGON9mY-3" edge="1">
          <mxGeometry x="-0.4171" y="5" relative="1" as="geometry">
            <mxPoint x="400" y="199" as="sourcePoint" />
            <mxPoint x="1" as="offset" />
          </mxGeometry>
        </mxCell>
        <mxCell id="NdkVsmn_23SWiZGON9mY-6" value="notification message" style="html=1;verticalAlign=bottom;endArrow=open;dashed=1;endSize=8;curved=0;rounded=0;exitX=0;exitY=1;exitDx=0;exitDy=-5;exitPerimeter=0;" parent="1" source="NdkVsmn_23SWiZGON9mY-3" target="NdkVsmn_23SWiZGON9mY-2" edge="1">
          <mxGeometry relative="1" as="geometry">
            <mxPoint x="460" y="344" as="sourcePoint" />
            <mxPoint x="380" y="344" as="targetPoint" />
          </mxGeometry>
        </mxCell>
        <mxCell id="NdkVsmn_23SWiZGON9mY-8" value="review content" style="html=1;verticalAlign=bottom;endArrow=block;curved=0;rounded=0;entryX=0;entryY=0;entryDx=0;entryDy=5;" parent="1" source="NdkVsmn_23SWiZGON9mY-2" target="NdkVsmn_23SWiZGON9mY-7" edge="1">
          <mxGeometry relative="1" as="geometry">
            <mxPoint x="400" y="319" as="sourcePoint" />
          </mxGeometry>
        </mxCell>
        <mxCell id="NdkVsmn_23SWiZGON9mY-9" value="return content page" style="html=1;verticalAlign=bottom;endArrow=open;dashed=1;endSize=8;curved=0;rounded=0;exitX=0;exitY=1;exitDx=0;exitDy=-5;" parent="1" source="NdkVsmn_23SWiZGON9mY-7" target="NdkVsmn_23SWiZGON9mY-2" edge="1">
          <mxGeometry relative="1" as="geometry">
            <mxPoint x="400" y="389" as="targetPoint" />
          </mxGeometry>
        </mxCell>
        <mxCell id="NdkVsmn_23SWiZGON9mY-11" value="[valid content]" style="text;html=1;align=center;verticalAlign=middle;whiteSpace=wrap;rounded=0;" parent="1" vertex="1">
          <mxGeometry x="190" y="394" width="80" height="30" as="geometry" />
        </mxCell>
        <mxCell id="NdkVsmn_23SWiZGON9mY-13" value="validate" style="html=1;verticalAlign=bottom;endArrow=block;curved=0;rounded=0;entryX=0;entryY=0;entryDx=0;entryDy=5;" parent="1" source="NdkVsmn_23SWiZGON9mY-2" target="NdkVsmn_23SWiZGON9mY-12" edge="1">
          <mxGeometry relative="1" as="geometry">
            <mxPoint x="400" y="429" as="sourcePoint" />
          </mxGeometry>
        </mxCell>
        <mxCell id="NdkVsmn_23SWiZGON9mY-14" value="successful message" style="html=1;verticalAlign=bottom;endArrow=open;dashed=1;endSize=8;curved=0;rounded=0;exitX=0;exitY=1;exitDx=0;exitDy=-5;" parent="1" edge="1">
          <mxGeometry x="0.0631" y="-5" relative="1" as="geometry">
            <mxPoint x="319.5" y="461" as="targetPoint" />
            <mxPoint x="470" y="461" as="sourcePoint" />
            <mxPoint as="offset" />
          </mxGeometry>
        </mxCell>
        <mxCell id="NdkVsmn_23SWiZGON9mY-15" value="content published message" style="html=1;verticalAlign=bottom;endArrow=open;dashed=1;endSize=8;curved=0;rounded=0;" parent="1" target="NdkVsmn_23SWiZGON9mY-1" edge="1">
          <mxGeometry x="0.5459" y="-6" relative="1" as="geometry">
            <mxPoint x="329.5" y="490" as="targetPoint" />
            <mxPoint x="470" y="490" as="sourcePoint" />
            <mxPoint as="offset" />
          </mxGeometry>
        </mxCell>
        <mxCell id="NdkVsmn_23SWiZGON9mY-16" value="" style="line;strokeWidth=1;fillColor=none;align=left;verticalAlign=middle;spacingTop=-1;spacingLeft=3;spacingRight=3;rotatable=0;labelPosition=right;points=[];portConstraint=eastwest;strokeColor=inherit;" parent="1" vertex="1">
          <mxGeometry x="130" y="507" width="430" height="8" as="geometry" />
        </mxCell>
        <mxCell id="NdkVsmn_23SWiZGON9mY-17" value="[else]" style="text;html=1;align=center;verticalAlign=middle;whiteSpace=wrap;rounded=0;" parent="1" vertex="1">
          <mxGeometry x="164" y="511" width="36" height="30" as="geometry" />
        </mxCell>
        <mxCell id="NdkVsmn_23SWiZGON9mY-19" value="publish content" style="html=1;align=left;spacingLeft=2;endArrow=block;rounded=0;edgeStyle=orthogonalEdgeStyle;curved=0;rounded=0;" parent="1" target="NdkVsmn_23SWiZGON9mY-12" edge="1">
          <mxGeometry relative="1" as="geometry">
            <mxPoint x="480" y="444" as="sourcePoint" />
            <Array as="points">
              <mxPoint x="510" y="444" />
              <mxPoint x="510" y="474" />
            </Array>
            <mxPoint x="485" y="474" as="targetPoint" />
          </mxGeometry>
        </mxCell>
        <mxCell id="NdkVsmn_23SWiZGON9mY-21" value="comments" style="html=1;verticalAlign=bottom;endArrow=block;curved=0;rounded=0;entryX=0;entryY=0;entryDx=0;entryDy=5;" parent="1" target="NdkVsmn_23SWiZGON9mY-20" edge="1">
          <mxGeometry relative="1" as="geometry">
            <mxPoint x="319.5" y="531" as="sourcePoint" />
          </mxGeometry>
        </mxCell>
        <mxCell id="NdkVsmn_23SWiZGON9mY-22" value="send back content with comments" style="html=1;verticalAlign=bottom;endArrow=open;dashed=1;endSize=8;curved=0;rounded=0;exitX=0;exitY=1;exitDx=0;exitDy=-5;" parent="1" source="NdkVsmn_23SWiZGON9mY-20" target="NdkVsmn_23SWiZGON9mY-1" edge="1">
          <mxGeometry x="0.4353" relative="1" as="geometry">
            <mxPoint x="319.5" y="571" as="targetPoint" />
            <mxPoint as="offset" />
          </mxGeometry>
        </mxCell>
        <mxCell id="5C1MM5s0Wti_h3N02Wur-1" value="Review content - Sequence diagram3" style="shape=note2;boundedLbl=1;whiteSpace=wrap;html=1;size=25;verticalAlign=top;align=center;" vertex="1" parent="1">
          <mxGeometry x="190" y="40" width="260" height="60" as="geometry" />
        </mxCell>
      </root>
    </mxGraphModel>
  </diagram>
</mxfile>
